<svg width="90" height="90" viewBox="0 0 90 90" fill="none" xmlns="http://www.w3.org/2000/svg">
<rect width="90" height="90" rx="8" fill="#F0DB4F"/>
<path d="M23.6644 75.2105L30.5515 71.0424C31.8804 73.3982 33.0891 75.3916 35.9884 75.3916C38.7675 75.3916 40.5201 74.3045 40.5201 70.0759V41.3188H48.9776V70.1955C48.9776 78.9554 43.8427 82.9428 36.3509 82.9428C29.5851 82.9428 25.6578 79.4388 23.6641 75.2098M53.5715 74.3042L60.4579 70.3171C62.2709 73.2776 64.6271 75.4524 68.7952 75.4524C72.2999 75.4524 74.5345 73.7002 74.5345 71.2836C74.5345 68.3839 72.2388 67.3566 68.3723 65.6656L66.2583 64.7586C60.1562 62.1616 56.1087 58.8991 56.1087 52.012C56.1087 45.6684 60.9416 40.8351 68.4936 40.8351C73.8704 40.8351 77.7368 42.7082 80.5156 47.6016L73.9301 51.8309C72.4799 49.2332 70.9098 48.2063 68.4932 48.2063C66.0161 48.2063 64.4453 49.7771 64.4453 51.8309C64.4453 54.3681 66.0161 55.3957 69.6407 56.9665L71.755 57.8725C78.9445 60.954 82.992 64.0952 82.992 71.163C82.992 78.7757 77.0112 82.9438 68.9762 82.9438C61.1227 82.9438 56.0479 79.1983 53.5711 74.3045" fill="black"/>
</svg>
